<svg xmlns="http://www.w3.org/2000/svg" xml:space="preserve" xmlns:xlink="http://www.w3.org/1999/xlink" style="max-width: 100%;height: auto;" width="990" height="990" viewBox="0 0 990 990">
<rect width="990" height="990" fill="#ffffff" x="0" y="0"></rect>
<g fill="#000000">
<g transform="translate(220,44) scale(3.7766666666667)"><rect width="6" height="6"></rect></g>
<g transform="translate(330,44) scale(3.7766666666667)"><rect width="6" height="6"></rect></g>
<g transform="translate(418,44) scale(3.7766666666667)"><rect width="6" height="6"></rect></g>
<g transform="translate(462,44) scale(3.7766666666667)"><rect width="6" height="6"></rect></g>
<g transform="translate(506,44) scale(3.7766666666667)"><rect width="6" height="6"></rect></g>
<g transform="translate(594,44) scale(3.7766666666667)"><rect width="6" height="6"></rect></g>
<g transform="translate(660,44) scale(3.7766666666667)"><rect width="6" height="6"></rect></g>
<g transform="translate(704,44) scale(3.7766666666667)"><rect width="6" height="6"></rect></g>
<g transform="translate(726,44) scale(3.7766666666667)"><rect width="6" height="6"></rect></g>
<g transform="translate(748,44) scale(3.7766666666667)"><rect width="6" height="6"></rect></g>
<g transform="translate(220,66) scale(3.7766666666667)"><rect width="6" height="6"></rect></g>
<g transform="translate(242,66) scale(3.7766666666667)"><rect width="6" height="6"></rect></g>
<g transform="translate(264,66) scale(3.7766666666667)"><rect width="6" height="6"></rect></g>
<g transform="translate(308,66) scale(3.7766666666667)"><rect width="6" height="6"></rect></g>
<g transform="translate(374,66) scale(3.7766666666667)"><rect width="6" height="6"></rect></g>
<g transform="translate(396,66) scale(3.7766666666667)"><rect width="6" height="6"></rect></g>
<g transform="translate(462,66) scale(3.7766666666667)"><rect width="6" height="6"></rect></g>
<g transform="translate(484,66) scale(3.7766666666667)"><rect width="6" height="6"></rect></g>
<g transform="translate(550,66) scale(3.7766666666667)"><rect width="6" height="6"></rect></g>
<g transform="translate(594,66) scale(3.7766666666667)"><rect width="6" height="6"></rect></g>
<g transform="translate(616,66) scale(3.7766666666667)"><rect width="6" height="6"></rect></g>
<g transform="translate(638,66) scale(3.7766666666667)"><rect width="6" height="6"></rect></g>
<g transform="translate(704,66) scale(3.7766666666667)"><rect width="6" height="6"></rect></g>
<g transform="translate(748,66) scale(3.7766666666667)"><rect width="6" height="6"></rect></g>
<g transform="translate(220,88) scale(3.7766666666667)"><rect width="6" height="6"></rect></g>
<g transform="translate(286,88) scale(3.7766666666667)"><rect width="6" height="6"></rect></g>
<g transform="translate(308,88) scale(3.7766666666667)"><rect width="6" height="6"></rect></g>
<g transform="translate(330,88) scale(3.7766666666667)"><rect width="6" height="6"></rect></g>
<g transform="translate(352,88) scale(3.7766666666667)"><rect width="6" height="6"></rect></g>
<g transform="translate(396,88) scale(3.7766666666667)"><rect width="6" height="6"></rect></g>
<g transform="translate(418,88) scale(3.7766666666667)"><rect width="6" height="6"></rect></g>
<g transform="translate(440,88) scale(3.7766666666667)"><rect width="6" height="6"></rect></g>
<g transform="translate(506,88) scale(3.7766666666667)"><rect width="6" height="6"></rect></g>
<g transform="translate(550,88) scale(3.7766666666667)"><rect width="6" height="6"></rect></g>
<g transform="translate(594,88) scale(3.7766666666667)"><rect width="6" height="6"></rect></g>
<g transform="translate(638,88) scale(3.7766666666667)"><rect width="6" height="6"></rect></g>
<g transform="translate(748,88) scale(3.7766666666667)"><rect width="6" height="6"></rect></g>
<g transform="translate(242,110) scale(3.7766666666667)"><rect width="6" height="6"></rect></g>
<g transform="translate(264,110) scale(3.7766666666667)"><rect width="6" height="6"></rect></g>
<g transform="translate(286,110) scale(3.7766666666667)"><rect width="6" height="6"></rect></g>
<g transform="translate(308,110) scale(3.7766666666667)"><rect width="6" height="6"></rect></g>
<g transform="translate(330,110) scale(3.7766666666667)"><rect width="6" height="6"></rect></g>
<g transform="translate(418,110) scale(3.7766666666667)"><rect width="6" height="6"></rect></g>
<g transform="translate(616,110) scale(3.7766666666667)"><rect width="6" height="6"></rect></g>
<g transform="translate(638,110) scale(3.7766666666667)"><rect width="6" height="6"></rect></g>
<g transform="translate(660,110) scale(3.7766666666667)"><rect width="6" height="6"></rect></g>
<g transform="translate(704,110) scale(3.7766666666667)"><rect width="6" height="6"></rect></g>
<g transform="translate(264,132) scale(3.7766666666667)"><rect width="6" height="6"></rect></g>
<g transform="translate(286,132) scale(3.7766666666667)"><rect width="6" height="6"></rect></g>
<g transform="translate(308,132) scale(3.7766666666667)"><rect width="6" height="6"></rect></g>
<g transform="translate(330,132) scale(3.7766666666667)"><rect width="6" height="6"></rect></g>
<g transform="translate(506,132) scale(3.7766666666667)"><rect width="6" height="6"></rect></g>
<g transform="translate(528,132) scale(3.7766666666667)"><rect width="6" height="6"></rect></g>
<g transform="translate(594,132) scale(3.7766666666667)"><rect width="6" height="6"></rect></g>
<g transform="translate(660,132) scale(3.7766666666667)"><rect width="6" height="6"></rect></g>
<g transform="translate(726,132) scale(3.7766666666667)"><rect width="6" height="6"></rect></g>
<g transform="translate(748,132) scale(3.7766666666667)"><rect width="6" height="6"></rect></g>
<g transform="translate(220,154) scale(3.7766666666667)"><rect width="6" height="6"></rect></g>
<g transform="translate(264,154) scale(3.7766666666667)"><rect width="6" height="6"></rect></g>
<g transform="translate(308,154) scale(3.7766666666667)"><rect width="6" height="6"></rect></g>
<g transform="translate(352,154) scale(3.7766666666667)"><rect width="6" height="6"></rect></g>
<g transform="translate(374,154) scale(3.7766666666667)"><rect width="6" height="6"></rect></g>
<g transform="translate(418,154) scale(3.7766666666667)"><rect width="6" height="6"></rect></g>
<g transform="translate(462,154) scale(3.7766666666667)"><rect width="6" height="6"></rect></g>
<g transform="translate(528,154) scale(3.7766666666667)"><rect width="6" height="6"></rect></g>
<g transform="translate(550,154) scale(3.7766666666667)"><rect width="6" height="6"></rect></g>
<g transform="translate(616,154) scale(3.7766666666667)"><rect width="6" height="6"></rect></g>
<g transform="translate(638,154) scale(3.7766666666667)"><rect width="6" height="6"></rect></g>
<g transform="translate(660,154) scale(3.7766666666667)"><rect width="6" height="6"></rect></g>
<g transform="translate(220,176) scale(3.7766666666667)"><rect width="6" height="6"></rect></g>
<g transform="translate(264,176) scale(3.7766666666667)"><rect width="6" height="6"></rect></g>
<g transform="translate(308,176) scale(3.7766666666667)"><rect width="6" height="6"></rect></g>
<g transform="translate(352,176) scale(3.7766666666667)"><rect width="6" height="6"></rect></g>
<g transform="translate(396,176) scale(3.7766666666667)"><rect width="6" height="6"></rect></g>
<g transform="translate(440,176) scale(3.7766666666667)"><rect width="6" height="6"></rect></g>
<g transform="translate(484,176) scale(3.7766666666667)"><rect width="6" height="6"></rect></g>
<g transform="translate(528,176) scale(3.7766666666667)"><rect width="6" height="6"></rect></g>
<g transform="translate(572,176) scale(3.7766666666667)"><rect width="6" height="6"></rect></g>
<g transform="translate(616,176) scale(3.7766666666667)"><rect width="6" height="6"></rect></g>
<g transform="translate(660,176) scale(3.7766666666667)"><rect width="6" height="6"></rect></g>
<g transform="translate(704,176) scale(3.7766666666667)"><rect width="6" height="6"></rect></g>
<g transform="translate(748,176) scale(3.7766666666667)"><rect width="6" height="6"></rect></g>
<g transform="translate(220,198) scale(3.7766666666667)"><rect width="6" height="6"></rect></g>
<g transform="translate(286,198) scale(3.7766666666667)"><rect width="6" height="6"></rect></g>
<g transform="translate(308,198) scale(3.7766666666667)"><rect width="6" height="6"></rect></g>
<g transform="translate(396,198) scale(3.7766666666667)"><rect width="6" height="6"></rect></g>
<g transform="translate(418,198) scale(3.7766666666667)"><rect width="6" height="6"></rect></g>
<g transform="translate(440,198) scale(3.7766666666667)"><rect width="6" height="6"></rect></g>
<g transform="translate(484,198) scale(3.7766666666667)"><rect width="6" height="6"></rect></g>
<g transform="translate(506,198) scale(3.7766666666667)"><rect width="6" height="6"></rect></g>
<g transform="translate(528,198) scale(3.7766666666667)"><rect width="6" height="6"></rect></g>
<g transform="translate(550,198) scale(3.7766666666667)"><rect width="6" height="6"></rect></g>
<g transform="translate(638,198) scale(3.7766666666667)"><rect width="6" height="6"></rect></g>
<g transform="translate(704,198) scale(3.7766666666667)"><rect width="6" height="6"></rect></g>
<g transform="translate(748,198) scale(3.7766666666667)"><rect width="6" height="6"></rect></g>
<g transform="translate(88,220) scale(3.7766666666667)"><rect width="6" height="6"></rect></g>
<g transform="translate(110,220) scale(3.7766666666667)"><rect width="6" height="6"></rect></g>
<g transform="translate(132,220) scale(3.7766666666667)"><rect width="6" height="6"></rect></g>
<g transform="translate(176,220) scale(3.7766666666667)"><rect width="6" height="6"></rect></g>
<g transform="translate(220,220) scale(3.7766666666667)"><rect width="6" height="6"></rect></g>
<g transform="translate(242,220) scale(3.7766666666667)"><rect width="6" height="6"></rect></g>
<g transform="translate(286,220) scale(3.7766666666667)"><rect width="6" height="6"></rect></g>
<g transform="translate(308,220) scale(3.7766666666667)"><rect width="6" height="6"></rect></g>
<g transform="translate(462,220) scale(3.7766666666667)"><rect width="6" height="6"></rect></g>
<g transform="translate(484,220) scale(3.7766666666667)"><rect width="6" height="6"></rect></g>
<g transform="translate(528,220) scale(3.7766666666667)"><rect width="6" height="6"></rect></g>
<g transform="translate(550,220) scale(3.7766666666667)"><rect width="6" height="6"></rect></g>
<g transform="translate(572,220) scale(3.7766666666667)"><rect width="6" height="6"></rect></g>
<g transform="translate(594,220) scale(3.7766666666667)"><rect width="6" height="6"></rect></g>
<g transform="translate(616,220) scale(3.7766666666667)"><rect width="6" height="6"></rect></g>
<g transform="translate(638,220) scale(3.7766666666667)"><rect width="6" height="6"></rect></g>
<g transform="translate(660,220) scale(3.7766666666667)"><rect width="6" height="6"></rect></g>
<g transform="translate(682,220) scale(3.7766666666667)"><rect width="6" height="6"></rect></g>
<g transform="translate(726,220) scale(3.7766666666667)"><rect width="6" height="6"></rect></g>
<g transform="translate(748,220) scale(3.7766666666667)"><rect width="6" height="6"></rect></g>
<g transform="translate(770,220) scale(3.7766666666667)"><rect width="6" height="6"></rect></g>
<g transform="translate(792,220) scale(3.7766666666667)"><rect width="6" height="6"></rect></g>
<g transform="translate(814,220) scale(3.7766666666667)"><rect width="6" height="6"></rect></g>
<g transform="translate(880,220) scale(3.7766666666667)"><rect width="6" height="6"></rect></g>
<g transform="translate(902,220) scale(3.7766666666667)"><rect width="6" height="6"></rect></g>
<g transform="translate(924,220) scale(3.7766666666667)"><rect width="6" height="6"></rect></g>
<g transform="translate(44,242) scale(3.7766666666667)"><rect width="6" height="6"></rect></g>
<g transform="translate(110,242) scale(3.7766666666667)"><rect width="6" height="6"></rect></g>
<g transform="translate(132,242) scale(3.7766666666667)"><rect width="6" height="6"></rect></g>
<g transform="translate(154,242) scale(3.7766666666667)"><rect width="6" height="6"></rect></g>
<g transform="translate(198,242) scale(3.7766666666667)"><rect width="6" height="6"></rect></g>
<g transform="translate(286,242) scale(3.7766666666667)"><rect width="6" height="6"></rect></g>
<g transform="translate(308,242) scale(3.7766666666667)"><rect width="6" height="6"></rect></g>
<g transform="translate(374,242) scale(3.7766666666667)"><rect width="6" height="6"></rect></g>
<g transform="translate(396,242) scale(3.7766666666667)"><rect width="6" height="6"></rect></g>
<g transform="translate(484,242) scale(3.7766666666667)"><rect width="6" height="6"></rect></g>
<g transform="translate(506,242) scale(3.7766666666667)"><rect width="6" height="6"></rect></g>
<g transform="translate(528,242) scale(3.7766666666667)"><rect width="6" height="6"></rect></g>
<g transform="translate(550,242) scale(3.7766666666667)"><rect width="6" height="6"></rect></g>
<g transform="translate(616,242) scale(3.7766666666667)"><rect width="6" height="6"></rect></g>
<g transform="translate(660,242) scale(3.7766666666667)"><rect width="6" height="6"></rect></g>
<g transform="translate(682,242) scale(3.7766666666667)"><rect width="6" height="6"></rect></g>
<g transform="translate(704,242) scale(3.7766666666667)"><rect width="6" height="6"></rect></g>
<g transform="translate(726,242) scale(3.7766666666667)"><rect width="6" height="6"></rect></g>
<g transform="translate(748,242) scale(3.7766666666667)"><rect width="6" height="6"></rect></g>
<g transform="translate(770,242) scale(3.7766666666667)"><rect width="6" height="6"></rect></g>
<g transform="translate(792,242) scale(3.7766666666667)"><rect width="6" height="6"></rect></g>
<g transform="translate(836,242) scale(3.7766666666667)"><rect width="6" height="6"></rect></g>
<g transform="translate(880,242) scale(3.7766666666667)"><rect width="6" height="6"></rect></g>
<g transform="translate(902,242) scale(3.7766666666667)"><rect width="6" height="6"></rect></g>
<g transform="translate(66,264) scale(3.7766666666667)"><rect width="6" height="6"></rect></g>
<g transform="translate(132,264) scale(3.7766666666667)"><rect width="6" height="6"></rect></g>
<g transform="translate(154,264) scale(3.7766666666667)"><rect width="6" height="6"></rect></g>
<g transform="translate(176,264) scale(3.7766666666667)"><rect width="6" height="6"></rect></g>
<g transform="translate(286,264) scale(3.7766666666667)"><rect width="6" height="6"></rect></g>
<g transform="translate(352,264) scale(3.7766666666667)"><rect width="6" height="6"></rect></g>
<g transform="translate(396,264) scale(3.7766666666667)"><rect width="6" height="6"></rect></g>
<g transform="translate(440,264) scale(3.7766666666667)"><rect width="6" height="6"></rect></g>
<g transform="translate(462,264) scale(3.7766666666667)"><rect width="6" height="6"></rect></g>
<g transform="translate(506,264) scale(3.7766666666667)"><rect width="6" height="6"></rect></g>
<g transform="translate(528,264) scale(3.7766666666667)"><rect width="6" height="6"></rect></g>
<g transform="translate(550,264) scale(3.7766666666667)"><rect width="6" height="6"></rect></g>
<g transform="translate(572,264) scale(3.7766666666667)"><rect width="6" height="6"></rect></g>
<g transform="translate(594,264) scale(3.7766666666667)"><rect width="6" height="6"></rect></g>
<g transform="translate(616,264) scale(3.7766666666667)"><rect width="6" height="6"></rect></g>
<g transform="translate(638,264) scale(3.7766666666667)"><rect width="6" height="6"></rect></g>
<g transform="translate(704,264) scale(3.7766666666667)"><rect width="6" height="6"></rect></g>
<g transform="translate(748,264) scale(3.7766666666667)"><rect width="6" height="6"></rect></g>
<g transform="translate(770,264) scale(3.7766666666667)"><rect width="6" height="6"></rect></g>
<g transform="translate(814,264) scale(3.7766666666667)"><rect width="6" height="6"></rect></g>
<g transform="translate(836,264) scale(3.7766666666667)"><rect width="6" height="6"></rect></g>
<g transform="translate(902,264) scale(3.7766666666667)"><rect width="6" height="6"></rect></g>
<g transform="translate(44,286) scale(3.7766666666667)"><rect width="6" height="6"></rect></g>
<g transform="translate(110,286) scale(3.7766666666667)"><rect width="6" height="6"></rect></g>
<g transform="translate(132,286) scale(3.7766666666667)"><rect width="6" height="6"></rect></g>
<g transform="translate(154,286) scale(3.7766666666667)"><rect width="6" height="6"></rect></g>
<g transform="translate(198,286) scale(3.7766666666667)"><rect width="6" height="6"></rect></g>
<g transform="translate(264,286) scale(3.7766666666667)"><rect width="6" height="6"></rect></g>
<g transform="translate(286,286) scale(3.7766666666667)"><rect width="6" height="6"></rect></g>
<g transform="translate(330,286) scale(3.7766666666667)"><rect width="6" height="6"></rect></g>
<g transform="translate(418,286) scale(3.7766666666667)"><rect width="6" height="6"></rect></g>
<g transform="translate(484,286) scale(3.7766666666667)"><rect width="6" height="6"></rect></g>
<g transform="translate(528,286) scale(3.7766666666667)"><rect width="6" height="6"></rect></g>
<g transform="translate(572,286) scale(3.7766666666667)"><rect width="6" height="6"></rect></g>
<g transform="translate(638,286) scale(3.7766666666667)"><rect width="6" height="6"></rect></g>
<g transform="translate(660,286) scale(3.7766666666667)"><rect width="6" height="6"></rect></g>
<g transform="translate(726,286) scale(3.7766666666667)"><rect width="6" height="6"></rect></g>
<g transform="translate(748,286) scale(3.7766666666667)"><rect width="6" height="6"></rect></g>
<g transform="translate(814,286) scale(3.7766666666667)"><rect width="6" height="6"></rect></g>
<g transform="translate(836,286) scale(3.7766666666667)"><rect width="6" height="6"></rect></g>
<g transform="translate(858,286) scale(3.7766666666667)"><rect width="6" height="6"></rect></g>
<g transform="translate(902,286) scale(3.7766666666667)"><rect width="6" height="6"></rect></g>
<g transform="translate(924,286) scale(3.7766666666667)"><rect width="6" height="6"></rect></g>
<g transform="translate(44,308) scale(3.7766666666667)"><rect width="6" height="6"></rect></g>
<g transform="translate(66,308) scale(3.7766666666667)"><rect width="6" height="6"></rect></g>
<g transform="translate(110,308) scale(3.7766666666667)"><rect width="6" height="6"></rect></g>
<g transform="translate(132,308) scale(3.7766666666667)"><rect width="6" height="6"></rect></g>
<g transform="translate(154,308) scale(3.7766666666667)"><rect width="6" height="6"></rect></g>
<g transform="translate(176,308) scale(3.7766666666667)"><rect width="6" height="6"></rect></g>
<g transform="translate(198,308) scale(3.7766666666667)"><rect width="6" height="6"></rect></g>
<g transform="translate(220,308) scale(3.7766666666667)"><rect width="6" height="6"></rect></g>
<g transform="translate(330,308) scale(3.7766666666667)"><rect width="6" height="6"></rect></g>
<g transform="translate(352,308) scale(3.7766666666667)"><rect width="6" height="6"></rect></g>
<g transform="translate(418,308) scale(3.7766666666667)"><rect width="6" height="6"></rect></g>
<g transform="translate(462,308) scale(3.7766666666667)"><rect width="6" height="6"></rect></g>
<g transform="translate(528,308) scale(3.7766666666667)"><rect width="6" height="6"></rect></g>
<g transform="translate(572,308) scale(3.7766666666667)"><rect width="6" height="6"></rect></g>
<g transform="translate(594,308) scale(3.7766666666667)"><rect width="6" height="6"></rect></g>
<g transform="translate(616,308) scale(3.7766666666667)"><rect width="6" height="6"></rect></g>
<g transform="translate(638,308) scale(3.7766666666667)"><rect width="6" height="6"></rect></g>
<g transform="translate(660,308) scale(3.7766666666667)"><rect width="6" height="6"></rect></g>
<g transform="translate(682,308) scale(3.7766666666667)"><rect width="6" height="6"></rect></g>
<g transform="translate(726,308) scale(3.7766666666667)"><rect width="6" height="6"></rect></g>
<g transform="translate(770,308) scale(3.7766666666667)"><rect width="6" height="6"></rect></g>
<g transform="translate(858,308) scale(3.7766666666667)"><rect width="6" height="6"></rect></g>
<g transform="translate(880,308) scale(3.7766666666667)"><rect width="6" height="6"></rect></g>
<g transform="translate(88,330) scale(3.7766666666667)"><rect width="6" height="6"></rect></g>
<g transform="translate(110,330) scale(3.7766666666667)"><rect width="6" height="6"></rect></g>
<g transform="translate(132,330) scale(3.7766666666667)"><rect width="6" height="6"></rect></g>
<g transform="translate(198,330) scale(3.7766666666667)"><rect width="6" height="6"></rect></g>
<g transform="translate(264,330) scale(3.7766666666667)"><rect width="6" height="6"></rect></g>
<g transform="translate(418,330) scale(3.7766666666667)"><rect width="6" height="6"></rect></g>
<g transform="translate(440,330) scale(3.7766666666667)"><rect width="6" height="6"></rect></g>
<g transform="translate(528,330) scale(3.7766666666667)"><rect width="6" height="6"></rect></g>
<g transform="translate(550,330) scale(3.7766666666667)"><rect width="6" height="6"></rect></g>
<g transform="translate(638,330) scale(3.7766666666667)"><rect width="6" height="6"></rect></g>
<g transform="translate(682,330) scale(3.7766666666667)"><rect width="6" height="6"></rect></g>
<g transform="translate(704,330) scale(3.7766666666667)"><rect width="6" height="6"></rect></g>
<g transform="translate(748,330) scale(3.7766666666667)"><rect width="6" height="6"></rect></g>
<g transform="translate(814,330) scale(3.7766666666667)"><rect width="6" height="6"></rect></g>
<g transform="translate(836,330) scale(3.7766666666667)"><rect width="6" height="6"></rect></g>
<g transform="translate(858,330) scale(3.7766666666667)"><rect width="6" height="6"></rect></g>
<g transform="translate(880,330) scale(3.7766666666667)"><rect width="6" height="6"></rect></g>
<g transform="translate(902,330) scale(3.7766666666667)"><rect width="6" height="6"></rect></g>
<g transform="translate(924,330) scale(3.7766666666667)"><rect width="6" height="6"></rect></g>
<g transform="translate(66,352) scale(3.7766666666667)"><rect width="6" height="6"></rect></g>
<g transform="translate(110,352) scale(3.7766666666667)"><rect width="6" height="6"></rect></g>
<g transform="translate(176,352) scale(3.7766666666667)"><rect width="6" height="6"></rect></g>
<g transform="translate(220,352) scale(3.7766666666667)"><rect width="6" height="6"></rect></g>
<g transform="translate(242,352) scale(3.7766666666667)"><rect width="6" height="6"></rect></g>
<g transform="translate(286,352) scale(3.7766666666667)"><rect width="6" height="6"></rect></g>
<g transform="translate(330,352) scale(3.7766666666667)"><rect width="6" height="6"></rect></g>
<g transform="translate(352,352) scale(3.7766666666667)"><rect width="6" height="6"></rect></g>
<g transform="translate(374,352) scale(3.7766666666667)"><rect width="6" height="6"></rect></g>
<g transform="translate(594,352) scale(3.7766666666667)"><rect width="6" height="6"></rect></g>
<g transform="translate(616,352) scale(3.7766666666667)"><rect width="6" height="6"></rect></g>
<g transform="translate(638,352) scale(3.7766666666667)"><rect width="6" height="6"></rect></g>
<g transform="translate(660,352) scale(3.7766666666667)"><rect width="6" height="6"></rect></g>
<g transform="translate(682,352) scale(3.7766666666667)"><rect width="6" height="6"></rect></g>
<g transform="translate(726,352) scale(3.7766666666667)"><rect width="6" height="6"></rect></g>
<g transform="translate(770,352) scale(3.7766666666667)"><rect width="6" height="6"></rect></g>
<g transform="translate(880,352) scale(3.7766666666667)"><rect width="6" height="6"></rect></g>
<g transform="translate(902,352) scale(3.7766666666667)"><rect width="6" height="6"></rect></g>
<g transform="translate(44,374) scale(3.7766666666667)"><rect width="6" height="6"></rect></g>
<g transform="translate(264,374) scale(3.7766666666667)"><rect width="6" height="6"></rect></g>
<g transform="translate(440,374) scale(3.7766666666667)"><rect width="6" height="6"></rect></g>
<g transform="translate(462,374) scale(3.7766666666667)"><rect width="6" height="6"></rect></g>
<g transform="translate(506,374) scale(3.7766666666667)"><rect width="6" height="6"></rect></g>
<g transform="translate(616,374) scale(3.7766666666667)"><rect width="6" height="6"></rect></g>
<g transform="translate(638,374) scale(3.7766666666667)"><rect width="6" height="6"></rect></g>
<g transform="translate(704,374) scale(3.7766666666667)"><rect width="6" height="6"></rect></g>
<g transform="translate(726,374) scale(3.7766666666667)"><rect width="6" height="6"></rect></g>
<g transform="translate(748,374) scale(3.7766666666667)"><rect width="6" height="6"></rect></g>
<g transform="translate(792,374) scale(3.7766666666667)"><rect width="6" height="6"></rect></g>
<g transform="translate(814,374) scale(3.7766666666667)"><rect width="6" height="6"></rect></g>
<g transform="translate(858,374) scale(3.7766666666667)"><rect width="6" height="6"></rect></g>
<g transform="translate(902,374) scale(3.7766666666667)"><rect width="6" height="6"></rect></g>
<g transform="translate(44,396) scale(3.7766666666667)"><rect width="6" height="6"></rect></g>
<g transform="translate(88,396) scale(3.7766666666667)"><rect width="6" height="6"></rect></g>
<g transform="translate(110,396) scale(3.7766666666667)"><rect width="6" height="6"></rect></g>
<g transform="translate(154,396) scale(3.7766666666667)"><rect width="6" height="6"></rect></g>
<g transform="translate(176,396) scale(3.7766666666667)"><rect width="6" height="6"></rect></g>
<g transform="translate(198,396) scale(3.7766666666667)"><rect width="6" height="6"></rect></g>
<g transform="translate(286,396) scale(3.7766666666667)"><rect width="6" height="6"></rect></g>
<g transform="translate(308,396) scale(3.7766666666667)"><rect width="6" height="6"></rect></g>
<g transform="translate(330,396) scale(3.7766666666667)"><rect width="6" height="6"></rect></g>
<g transform="translate(352,396) scale(3.7766666666667)"><rect width="6" height="6"></rect></g>
<g transform="translate(374,396) scale(3.7766666666667)"><rect width="6" height="6"></rect></g>
<g transform="translate(396,396) scale(3.7766666666667)"><rect width="6" height="6"></rect></g>
<g transform="translate(440,396) scale(3.7766666666667)"><rect width="6" height="6"></rect></g>
<g transform="translate(506,396) scale(3.7766666666667)"><rect width="6" height="6"></rect></g>
<g transform="translate(550,396) scale(3.7766666666667)"><rect width="6" height="6"></rect></g>
<g transform="translate(594,396) scale(3.7766666666667)"><rect width="6" height="6"></rect></g>
<g transform="translate(616,396) scale(3.7766666666667)"><rect width="6" height="6"></rect></g>
<g transform="translate(638,396) scale(3.7766666666667)"><rect width="6" height="6"></rect></g>
<g transform="translate(660,396) scale(3.7766666666667)"><rect width="6" height="6"></rect></g>
<g transform="translate(682,396) scale(3.7766666666667)"><rect width="6" height="6"></rect></g>
<g transform="translate(726,396) scale(3.7766666666667)"><rect width="6" height="6"></rect></g>
<g transform="translate(770,396) scale(3.7766666666667)"><rect width="6" height="6"></rect></g>
<g transform="translate(814,396) scale(3.7766666666667)"><rect width="6" height="6"></rect></g>
<g transform="translate(880,396) scale(3.7766666666667)"><rect width="6" height="6"></rect></g>
<g transform="translate(902,396) scale(3.7766666666667)"><rect width="6" height="6"></rect></g>
<g transform="translate(44,418) scale(3.7766666666667)"><rect width="6" height="6"></rect></g>
<g transform="translate(88,418) scale(3.7766666666667)"><rect width="6" height="6"></rect></g>
<g transform="translate(132,418) scale(3.7766666666667)"><rect width="6" height="6"></rect></g>
<g transform="translate(154,418) scale(3.7766666666667)"><rect width="6" height="6"></rect></g>
<g transform="translate(198,418) scale(3.7766666666667)"><rect width="6" height="6"></rect></g>
<g transform="translate(220,418) scale(3.7766666666667)"><rect width="6" height="6"></rect></g>
<g transform="translate(242,418) scale(3.7766666666667)"><rect width="6" height="6"></rect></g>
<g transform="translate(264,418) scale(3.7766666666667)"><rect width="6" height="6"></rect></g>
<g transform="translate(308,418) scale(3.7766666666667)"><rect width="6" height="6"></rect></g>
<g transform="translate(374,418) scale(3.7766666666667)"><rect width="6" height="6"></rect></g>
<g transform="translate(440,418) scale(3.7766666666667)"><rect width="6" height="6"></rect></g>
<g transform="translate(528,418) scale(3.7766666666667)"><rect width="6" height="6"></rect></g>
<g transform="translate(572,418) scale(3.7766666666667)"><rect width="6" height="6"></rect></g>
<g transform="translate(660,418) scale(3.7766666666667)"><rect width="6" height="6"></rect></g>
<g transform="translate(682,418) scale(3.7766666666667)"><rect width="6" height="6"></rect></g>
<g transform="translate(704,418) scale(3.7766666666667)"><rect width="6" height="6"></rect></g>
<g transform="translate(726,418) scale(3.7766666666667)"><rect width="6" height="6"></rect></g>
<g transform="translate(748,418) scale(3.7766666666667)"><rect width="6" height="6"></rect></g>
<g transform="translate(792,418) scale(3.7766666666667)"><rect width="6" height="6"></rect></g>
<g transform="translate(814,418) scale(3.7766666666667)"><rect width="6" height="6"></rect></g>
<g transform="translate(836,418) scale(3.7766666666667)"><rect width="6" height="6"></rect></g>
<g transform="translate(858,418) scale(3.7766666666667)"><rect width="6" height="6"></rect></g>
<g transform="translate(880,418) scale(3.7766666666667)"><rect width="6" height="6"></rect></g>
<g transform="translate(902,418) scale(3.7766666666667)"><rect width="6" height="6"></rect></g>
<g transform="translate(924,418) scale(3.7766666666667)"><rect width="6" height="6"></rect></g>
<g transform="translate(66,440) scale(3.7766666666667)"><rect width="6" height="6"></rect></g>
<g transform="translate(88,440) scale(3.7766666666667)"><rect width="6" height="6"></rect></g>
<g transform="translate(154,440) scale(3.7766666666667)"><rect width="6" height="6"></rect></g>
<g transform="translate(176,440) scale(3.7766666666667)"><rect width="6" height="6"></rect></g>
<g transform="translate(242,440) scale(3.7766666666667)"><rect width="6" height="6"></rect></g>
<g transform="translate(286,440) scale(3.7766666666667)"><rect width="6" height="6"></rect></g>
<g transform="translate(308,440) scale(3.7766666666667)"><rect width="6" height="6"></rect></g>
<g transform="translate(374,440) scale(3.7766666666667)"><rect width="6" height="6"></rect></g>
<g transform="translate(440,440) scale(3.7766666666667)"><rect width="6" height="6"></rect></g>
<g transform="translate(462,440) scale(3.7766666666667)"><rect width="6" height="6"></rect></g>
<g transform="translate(616,440) scale(3.7766666666667)"><rect width="6" height="6"></rect></g>
<g transform="translate(638,440) scale(3.7766666666667)"><rect width="6" height="6"></rect></g>
<g transform="translate(682,440) scale(3.7766666666667)"><rect width="6" height="6"></rect></g>
<g transform="translate(792,440) scale(3.7766666666667)"><rect width="6" height="6"></rect></g>
<g transform="translate(836,440) scale(3.7766666666667)"><rect width="6" height="6"></rect></g>
<g transform="translate(858,440) scale(3.7766666666667)"><rect width="6" height="6"></rect></g>
<g transform="translate(880,440) scale(3.7766666666667)"><rect width="6" height="6"></rect></g>
<g transform="translate(44,462) scale(3.7766666666667)"><rect width="6" height="6"></rect></g>
<g transform="translate(110,462) scale(3.7766666666667)"><rect width="6" height="6"></rect></g>
<g transform="translate(220,462) scale(3.7766666666667)"><rect width="6" height="6"></rect></g>
<g transform="translate(242,462) scale(3.7766666666667)"><rect width="6" height="6"></rect></g>
<g transform="translate(264,462) scale(3.7766666666667)"><rect width="6" height="6"></rect></g>
<g transform="translate(396,462) scale(3.7766666666667)"><rect width="6" height="6"></rect></g>
<g transform="translate(484,462) scale(3.7766666666667)"><rect width="6" height="6"></rect></g>
<g transform="translate(550,462) scale(3.7766666666667)"><rect width="6" height="6"></rect></g>
<g transform="translate(572,462) scale(3.7766666666667)"><rect width="6" height="6"></rect></g>
<g transform="translate(660,462) scale(3.7766666666667)"><rect width="6" height="6"></rect></g>
<g transform="translate(682,462) scale(3.7766666666667)"><rect width="6" height="6"></rect></g>
<g transform="translate(704,462) scale(3.7766666666667)"><rect width="6" height="6"></rect></g>
<g transform="translate(726,462) scale(3.7766666666667)"><rect width="6" height="6"></rect></g>
<g transform="translate(770,462) scale(3.7766666666667)"><rect width="6" height="6"></rect></g>
<g transform="translate(792,462) scale(3.7766666666667)"><rect width="6" height="6"></rect></g>
<g transform="translate(836,462) scale(3.7766666666667)"><rect width="6" height="6"></rect></g>
<g transform="translate(858,462) scale(3.7766666666667)"><rect width="6" height="6"></rect></g>
<g transform="translate(88,484) scale(3.7766666666667)"><rect width="6" height="6"></rect></g>
<g transform="translate(110,484) scale(3.7766666666667)"><rect width="6" height="6"></rect></g>
<g transform="translate(132,484) scale(3.7766666666667)"><rect width="6" height="6"></rect></g>
<g transform="translate(176,484) scale(3.7766666666667)"><rect width="6" height="6"></rect></g>
<g transform="translate(198,484) scale(3.7766666666667)"><rect width="6" height="6"></rect></g>
<g transform="translate(330,484) scale(3.7766666666667)"><rect width="6" height="6"></rect></g>
<g transform="translate(418,484) scale(3.7766666666667)"><rect width="6" height="6"></rect></g>
<g transform="translate(462,484) scale(3.7766666666667)"><rect width="6" height="6"></rect></g>
<g transform="translate(484,484) scale(3.7766666666667)"><rect width="6" height="6"></rect></g>
<g transform="translate(506,484) scale(3.7766666666667)"><rect width="6" height="6"></rect></g>
<g transform="translate(572,484) scale(3.7766666666667)"><rect width="6" height="6"></rect></g>
<g transform="translate(594,484) scale(3.7766666666667)"><rect width="6" height="6"></rect></g>
<g transform="translate(836,484) scale(3.7766666666667)"><rect width="6" height="6"></rect></g>
<g transform="translate(858,484) scale(3.7766666666667)"><rect width="6" height="6"></rect></g>
<g transform="translate(880,484) scale(3.7766666666667)"><rect width="6" height="6"></rect></g>
<g transform="translate(44,506) scale(3.7766666666667)"><rect width="6" height="6"></rect></g>
<g transform="translate(88,506) scale(3.7766666666667)"><rect width="6" height="6"></rect></g>
<g transform="translate(154,506) scale(3.7766666666667)"><rect width="6" height="6"></rect></g>
<g transform="translate(220,506) scale(3.7766666666667)"><rect width="6" height="6"></rect></g>
<g transform="translate(242,506) scale(3.7766666666667)"><rect width="6" height="6"></rect></g>
<g transform="translate(264,506) scale(3.7766666666667)"><rect width="6" height="6"></rect></g>
<g transform="translate(286,506) scale(3.7766666666667)"><rect width="6" height="6"></rect></g>
<g transform="translate(352,506) scale(3.7766666666667)"><rect width="6" height="6"></rect></g>
<g transform="translate(440,506) scale(3.7766666666667)"><rect width="6" height="6"></rect></g>
<g transform="translate(550,506) scale(3.7766666666667)"><rect width="6" height="6"></rect></g>
<g transform="translate(594,506) scale(3.7766666666667)"><rect width="6" height="6"></rect></g>
<g transform="translate(660,506) scale(3.7766666666667)"><rect width="6" height="6"></rect></g>
<g transform="translate(704,506) scale(3.7766666666667)"><rect width="6" height="6"></rect></g>
<g transform="translate(726,506) scale(3.7766666666667)"><rect width="6" height="6"></rect></g>
<g transform="translate(748,506) scale(3.7766666666667)"><rect width="6" height="6"></rect></g>
<g transform="translate(770,506) scale(3.7766666666667)"><rect width="6" height="6"></rect></g>
<g transform="translate(792,506) scale(3.7766666666667)"><rect width="6" height="6"></rect></g>
<g transform="translate(814,506) scale(3.7766666666667)"><rect width="6" height="6"></rect></g>
<g transform="translate(858,506) scale(3.7766666666667)"><rect width="6" height="6"></rect></g>
<g transform="translate(880,506) scale(3.7766666666667)"><rect width="6" height="6"></rect></g>
<g transform="translate(902,506) scale(3.7766666666667)"><rect width="6" height="6"></rect></g>
<g transform="translate(924,506) scale(3.7766666666667)"><rect width="6" height="6"></rect></g>
<g transform="translate(44,528) scale(3.7766666666667)"><rect width="6" height="6"></rect></g>
<g transform="translate(66,528) scale(3.7766666666667)"><rect width="6" height="6"></rect></g>
<g transform="translate(88,528) scale(3.7766666666667)"><rect width="6" height="6"></rect></g>
<g transform="translate(110,528) scale(3.7766666666667)"><rect width="6" height="6"></rect></g>
<g transform="translate(132,528) scale(3.7766666666667)"><rect width="6" height="6"></rect></g>
<g transform="translate(154,528) scale(3.7766666666667)"><rect width="6" height="6"></rect></g>
<g transform="translate(176,528) scale(3.7766666666667)"><rect width="6" height="6"></rect></g>
<g transform="translate(198,528) scale(3.7766666666667)"><rect width="6" height="6"></rect></g>
<g transform="translate(220,528) scale(3.7766666666667)"><rect width="6" height="6"></rect></g>
<g transform="translate(242,528) scale(3.7766666666667)"><rect width="6" height="6"></rect></g>
<g transform="translate(264,528) scale(3.7766666666667)"><rect width="6" height="6"></rect></g>
<g transform="translate(308,528) scale(3.7766666666667)"><rect width="6" height="6"></rect></g>
<g transform="translate(352,528) scale(3.7766666666667)"><rect width="6" height="6"></rect></g>
<g transform="translate(374,528) scale(3.7766666666667)"><rect width="6" height="6"></rect></g>
<g transform="translate(396,528) scale(3.7766666666667)"><rect width="6" height="6"></rect></g>
<g transform="translate(506,528) scale(3.7766666666667)"><rect width="6" height="6"></rect></g>
<g transform="translate(528,528) scale(3.7766666666667)"><rect width="6" height="6"></rect></g>
<g transform="translate(572,528) scale(3.7766666666667)"><rect width="6" height="6"></rect></g>
<g transform="translate(638,528) scale(3.7766666666667)"><rect width="6" height="6"></rect></g>
<g transform="translate(792,528) scale(3.7766666666667)"><rect width="6" height="6"></rect></g>
<g transform="translate(880,528) scale(3.7766666666667)"><rect width="6" height="6"></rect></g>
<g transform="translate(44,550) scale(3.7766666666667)"><rect width="6" height="6"></rect></g>
<g transform="translate(66,550) scale(3.7766666666667)"><rect width="6" height="6"></rect></g>
<g transform="translate(154,550) scale(3.7766666666667)"><rect width="6" height="6"></rect></g>
<g transform="translate(198,550) scale(3.7766666666667)"><rect width="6" height="6"></rect></g>
<g transform="translate(242,550) scale(3.7766666666667)"><rect width="6" height="6"></rect></g>
<g transform="translate(264,550) scale(3.7766666666667)"><rect width="6" height="6"></rect></g>
<g transform="translate(286,550) scale(3.7766666666667)"><rect width="6" height="6"></rect></g>
<g transform="translate(308,550) scale(3.7766666666667)"><rect width="6" height="6"></rect></g>
<g transform="translate(330,550) scale(3.7766666666667)"><rect width="6" height="6"></rect></g>
<g transform="translate(352,550) scale(3.7766666666667)"><rect width="6" height="6"></rect></g>
<g transform="translate(374,550) scale(3.7766666666667)"><rect width="6" height="6"></rect></g>
<g transform="translate(462,550) scale(3.7766666666667)"><rect width="6" height="6"></rect></g>
<g transform="translate(484,550) scale(3.7766666666667)"><rect width="6" height="6"></rect></g>
<g transform="translate(506,550) scale(3.7766666666667)"><rect width="6" height="6"></rect></g>
<g transform="translate(550,550) scale(3.7766666666667)"><rect width="6" height="6"></rect></g>
<g transform="translate(572,550) scale(3.7766666666667)"><rect width="6" height="6"></rect></g>
<g transform="translate(594,550) scale(3.7766666666667)"><rect width="6" height="6"></rect></g>
<g transform="translate(660,550) scale(3.7766666666667)"><rect width="6" height="6"></rect></g>
<g transform="translate(748,550) scale(3.7766666666667)"><rect width="6" height="6"></rect></g>
<g transform="translate(814,550) scale(3.7766666666667)"><rect width="6" height="6"></rect></g>
<g transform="translate(858,550) scale(3.7766666666667)"><rect width="6" height="6"></rect></g>
<g transform="translate(880,550) scale(3.7766666666667)"><rect width="6" height="6"></rect></g>
<g transform="translate(66,572) scale(3.7766666666667)"><rect width="6" height="6"></rect></g>
<g transform="translate(88,572) scale(3.7766666666667)"><rect width="6" height="6"></rect></g>
<g transform="translate(110,572) scale(3.7766666666667)"><rect width="6" height="6"></rect></g>
<g transform="translate(132,572) scale(3.7766666666667)"><rect width="6" height="6"></rect></g>
<g transform="translate(176,572) scale(3.7766666666667)"><rect width="6" height="6"></rect></g>
<g transform="translate(198,572) scale(3.7766666666667)"><rect width="6" height="6"></rect></g>
<g transform="translate(242,572) scale(3.7766666666667)"><rect width="6" height="6"></rect></g>
<g transform="translate(264,572) scale(3.7766666666667)"><rect width="6" height="6"></rect></g>
<g transform="translate(550,572) scale(3.7766666666667)"><rect width="6" height="6"></rect></g>
<g transform="translate(572,572) scale(3.7766666666667)"><rect width="6" height="6"></rect></g>
<g transform="translate(660,572) scale(3.7766666666667)"><rect width="6" height="6"></rect></g>
<g transform="translate(682,572) scale(3.7766666666667)"><rect width="6" height="6"></rect></g>
<g transform="translate(924,572) scale(3.7766666666667)"><rect width="6" height="6"></rect></g>
<g transform="translate(88,594) scale(3.7766666666667)"><rect width="6" height="6"></rect></g>
<g transform="translate(110,594) scale(3.7766666666667)"><rect width="6" height="6"></rect></g>
<g transform="translate(132,594) scale(3.7766666666667)"><rect width="6" height="6"></rect></g>
<g transform="translate(242,594) scale(3.7766666666667)"><rect width="6" height="6"></rect></g>
<g transform="translate(264,594) scale(3.7766666666667)"><rect width="6" height="6"></rect></g>
<g transform="translate(330,594) scale(3.7766666666667)"><rect width="6" height="6"></rect></g>
<g transform="translate(352,594) scale(3.7766666666667)"><rect width="6" height="6"></rect></g>
<g transform="translate(374,594) scale(3.7766666666667)"><rect width="6" height="6"></rect></g>
<g transform="translate(396,594) scale(3.7766666666667)"><rect width="6" height="6"></rect></g>
<g transform="translate(418,594) scale(3.7766666666667)"><rect width="6" height="6"></rect></g>
<g transform="translate(462,594) scale(3.7766666666667)"><rect width="6" height="6"></rect></g>
<g transform="translate(550,594) scale(3.7766666666667)"><rect width="6" height="6"></rect></g>
<g transform="translate(594,594) scale(3.7766666666667)"><rect width="6" height="6"></rect></g>
<g transform="translate(616,594) scale(3.7766666666667)"><rect width="6" height="6"></rect></g>
<g transform="translate(660,594) scale(3.7766666666667)"><rect width="6" height="6"></rect></g>
<g transform="translate(704,594) scale(3.7766666666667)"><rect width="6" height="6"></rect></g>
<g transform="translate(726,594) scale(3.7766666666667)"><rect width="6" height="6"></rect></g>
<g transform="translate(792,594) scale(3.7766666666667)"><rect width="6" height="6"></rect></g>
<g transform="translate(814,594) scale(3.7766666666667)"><rect width="6" height="6"></rect></g>
<g transform="translate(836,594) scale(3.7766666666667)"><rect width="6" height="6"></rect></g>
<g transform="translate(858,594) scale(3.7766666666667)"><rect width="6" height="6"></rect></g>
<g transform="translate(902,594) scale(3.7766666666667)"><rect width="6" height="6"></rect></g>
<g transform="translate(924,594) scale(3.7766666666667)"><rect width="6" height="6"></rect></g>
<g transform="translate(44,616) scale(3.7766666666667)"><rect width="6" height="6"></rect></g>
<g transform="translate(66,616) scale(3.7766666666667)"><rect width="6" height="6"></rect></g>
<g transform="translate(88,616) scale(3.7766666666667)"><rect width="6" height="6"></rect></g>
<g transform="translate(110,616) scale(3.7766666666667)"><rect width="6" height="6"></rect></g>
<g transform="translate(154,616) scale(3.7766666666667)"><rect width="6" height="6"></rect></g>
<g transform="translate(176,616) scale(3.7766666666667)"><rect width="6" height="6"></rect></g>
<g transform="translate(242,616) scale(3.7766666666667)"><rect width="6" height="6"></rect></g>
<g transform="translate(286,616) scale(3.7766666666667)"><rect width="6" height="6"></rect></g>
<g transform="translate(308,616) scale(3.7766666666667)"><rect width="6" height="6"></rect></g>
<g transform="translate(330,616) scale(3.7766666666667)"><rect width="6" height="6"></rect></g>
<g transform="translate(374,616) scale(3.7766666666667)"><rect width="6" height="6"></rect></g>
<g transform="translate(418,616) scale(3.7766666666667)"><rect width="6" height="6"></rect></g>
<g transform="translate(440,616) scale(3.7766666666667)"><rect width="6" height="6"></rect></g>
<g transform="translate(528,616) scale(3.7766666666667)"><rect width="6" height="6"></rect></g>
<g transform="translate(550,616) scale(3.7766666666667)"><rect width="6" height="6"></rect></g>
<g transform="translate(572,616) scale(3.7766666666667)"><rect width="6" height="6"></rect></g>
<g transform="translate(594,616) scale(3.7766666666667)"><rect width="6" height="6"></rect></g>
<g transform="translate(616,616) scale(3.7766666666667)"><rect width="6" height="6"></rect></g>
<g transform="translate(638,616) scale(3.7766666666667)"><rect width="6" height="6"></rect></g>
<g transform="translate(660,616) scale(3.7766666666667)"><rect width="6" height="6"></rect></g>
<g transform="translate(682,616) scale(3.7766666666667)"><rect width="6" height="6"></rect></g>
<g transform="translate(748,616) scale(3.7766666666667)"><rect width="6" height="6"></rect></g>
<g transform="translate(792,616) scale(3.7766666666667)"><rect width="6" height="6"></rect></g>
<g transform="translate(814,616) scale(3.7766666666667)"><rect width="6" height="6"></rect></g>
<g transform="translate(836,616) scale(3.7766666666667)"><rect width="6" height="6"></rect></g>
<g transform="translate(44,638) scale(3.7766666666667)"><rect width="6" height="6"></rect></g>
<g transform="translate(110,638) scale(3.7766666666667)"><rect width="6" height="6"></rect></g>
<g transform="translate(132,638) scale(3.7766666666667)"><rect width="6" height="6"></rect></g>
<g transform="translate(198,638) scale(3.7766666666667)"><rect width="6" height="6"></rect></g>
<g transform="translate(220,638) scale(3.7766666666667)"><rect width="6" height="6"></rect></g>
<g transform="translate(308,638) scale(3.7766666666667)"><rect width="6" height="6"></rect></g>
<g transform="translate(462,638) scale(3.7766666666667)"><rect width="6" height="6"></rect></g>
<g transform="translate(528,638) scale(3.7766666666667)"><rect width="6" height="6"></rect></g>
<g transform="translate(572,638) scale(3.7766666666667)"><rect width="6" height="6"></rect></g>
<g transform="translate(616,638) scale(3.7766666666667)"><rect width="6" height="6"></rect></g>
<g transform="translate(638,638) scale(3.7766666666667)"><rect width="6" height="6"></rect></g>
<g transform="translate(660,638) scale(3.7766666666667)"><rect width="6" height="6"></rect></g>
<g transform="translate(704,638) scale(3.7766666666667)"><rect width="6" height="6"></rect></g>
<g transform="translate(726,638) scale(3.7766666666667)"><rect width="6" height="6"></rect></g>
<g transform="translate(748,638) scale(3.7766666666667)"><rect width="6" height="6"></rect></g>
<g transform="translate(770,638) scale(3.7766666666667)"><rect width="6" height="6"></rect></g>
<g transform="translate(792,638) scale(3.7766666666667)"><rect width="6" height="6"></rect></g>
<g transform="translate(814,638) scale(3.7766666666667)"><rect width="6" height="6"></rect></g>
<g transform="translate(836,638) scale(3.7766666666667)"><rect width="6" height="6"></rect></g>
<g transform="translate(858,638) scale(3.7766666666667)"><rect width="6" height="6"></rect></g>
<g transform="translate(902,638) scale(3.7766666666667)"><rect width="6" height="6"></rect></g>
<g transform="translate(44,660) scale(3.7766666666667)"><rect width="6" height="6"></rect></g>
<g transform="translate(154,660) scale(3.7766666666667)"><rect width="6" height="6"></rect></g>
<g transform="translate(176,660) scale(3.7766666666667)"><rect width="6" height="6"></rect></g>
<g transform="translate(242,660) scale(3.7766666666667)"><rect width="6" height="6"></rect></g>
<g transform="translate(286,660) scale(3.7766666666667)"><rect width="6" height="6"></rect></g>
<g transform="translate(374,660) scale(3.7766666666667)"><rect width="6" height="6"></rect></g>
<g transform="translate(418,660) scale(3.7766666666667)"><rect width="6" height="6"></rect></g>
<g transform="translate(440,660) scale(3.7766666666667)"><rect width="6" height="6"></rect></g>
<g transform="translate(528,660) scale(3.7766666666667)"><rect width="6" height="6"></rect></g>
<g transform="translate(594,660) scale(3.7766666666667)"><rect width="6" height="6"></rect></g>
<g transform="translate(616,660) scale(3.7766666666667)"><rect width="6" height="6"></rect></g>
<g transform="translate(682,660) scale(3.7766666666667)"><rect width="6" height="6"></rect></g>
<g transform="translate(726,660) scale(3.7766666666667)"><rect width="6" height="6"></rect></g>
<g transform="translate(748,660) scale(3.7766666666667)"><rect width="6" height="6"></rect></g>
<g transform="translate(792,660) scale(3.7766666666667)"><rect width="6" height="6"></rect></g>
<g transform="translate(858,660) scale(3.7766666666667)"><rect width="6" height="6"></rect></g>
<g transform="translate(880,660) scale(3.7766666666667)"><rect width="6" height="6"></rect></g>
<g transform="translate(44,682) scale(3.7766666666667)"><rect width="6" height="6"></rect></g>
<g transform="translate(66,682) scale(3.7766666666667)"><rect width="6" height="6"></rect></g>
<g transform="translate(110,682) scale(3.7766666666667)"><rect width="6" height="6"></rect></g>
<g transform="translate(132,682) scale(3.7766666666667)"><rect width="6" height="6"></rect></g>
<g transform="translate(154,682) scale(3.7766666666667)"><rect width="6" height="6"></rect></g>
<g transform="translate(242,682) scale(3.7766666666667)"><rect width="6" height="6"></rect></g>
<g transform="translate(308,682) scale(3.7766666666667)"><rect width="6" height="6"></rect></g>
<g transform="translate(374,682) scale(3.7766666666667)"><rect width="6" height="6"></rect></g>
<g transform="translate(462,682) scale(3.7766666666667)"><rect width="6" height="6"></rect></g>
<g transform="translate(528,682) scale(3.7766666666667)"><rect width="6" height="6"></rect></g>
<g transform="translate(550,682) scale(3.7766666666667)"><rect width="6" height="6"></rect></g>
<g transform="translate(594,682) scale(3.7766666666667)"><rect width="6" height="6"></rect></g>
<g transform="translate(638,682) scale(3.7766666666667)"><rect width="6" height="6"></rect></g>
<g transform="translate(660,682) scale(3.7766666666667)"><rect width="6" height="6"></rect></g>
<g transform="translate(770,682) scale(3.7766666666667)"><rect width="6" height="6"></rect></g>
<g transform="translate(836,682) scale(3.7766666666667)"><rect width="6" height="6"></rect></g>
<g transform="translate(858,682) scale(3.7766666666667)"><rect width="6" height="6"></rect></g>
<g transform="translate(924,682) scale(3.7766666666667)"><rect width="6" height="6"></rect></g>
<g transform="translate(44,704) scale(3.7766666666667)"><rect width="6" height="6"></rect></g>
<g transform="translate(88,704) scale(3.7766666666667)"><rect width="6" height="6"></rect></g>
<g transform="translate(110,704) scale(3.7766666666667)"><rect width="6" height="6"></rect></g>
<g transform="translate(132,704) scale(3.7766666666667)"><rect width="6" height="6"></rect></g>
<g transform="translate(154,704) scale(3.7766666666667)"><rect width="6" height="6"></rect></g>
<g transform="translate(176,704) scale(3.7766666666667)"><rect width="6" height="6"></rect></g>
<g transform="translate(220,704) scale(3.7766666666667)"><rect width="6" height="6"></rect></g>
<g transform="translate(264,704) scale(3.7766666666667)"><rect width="6" height="6"></rect></g>
<g transform="translate(286,704) scale(3.7766666666667)"><rect width="6" height="6"></rect></g>
<g transform="translate(308,704) scale(3.7766666666667)"><rect width="6" height="6"></rect></g>
<g transform="translate(330,704) scale(3.7766666666667)"><rect width="6" height="6"></rect></g>
<g transform="translate(352,704) scale(3.7766666666667)"><rect width="6" height="6"></rect></g>
<g transform="translate(374,704) scale(3.7766666666667)"><rect width="6" height="6"></rect></g>
<g transform="translate(396,704) scale(3.7766666666667)"><rect width="6" height="6"></rect></g>
<g transform="translate(440,704) scale(3.7766666666667)"><rect width="6" height="6"></rect></g>
<g transform="translate(462,704) scale(3.7766666666667)"><rect width="6" height="6"></rect></g>
<g transform="translate(484,704) scale(3.7766666666667)"><rect width="6" height="6"></rect></g>
<g transform="translate(506,704) scale(3.7766666666667)"><rect width="6" height="6"></rect></g>
<g transform="translate(572,704) scale(3.7766666666667)"><rect width="6" height="6"></rect></g>
<g transform="translate(616,704) scale(3.7766666666667)"><rect width="6" height="6"></rect></g>
<g transform="translate(748,704) scale(3.7766666666667)"><rect width="6" height="6"></rect></g>
<g transform="translate(770,704) scale(3.7766666666667)"><rect width="6" height="6"></rect></g>
<g transform="translate(792,704) scale(3.7766666666667)"><rect width="6" height="6"></rect></g>
<g transform="translate(814,704) scale(3.7766666666667)"><rect width="6" height="6"></rect></g>
<g transform="translate(44,726) scale(3.7766666666667)"><rect width="6" height="6"></rect></g>
<g transform="translate(88,726) scale(3.7766666666667)"><rect width="6" height="6"></rect></g>
<g transform="translate(132,726) scale(3.7766666666667)"><rect width="6" height="6"></rect></g>
<g transform="translate(154,726) scale(3.7766666666667)"><rect width="6" height="6"></rect></g>
<g transform="translate(220,726) scale(3.7766666666667)"><rect width="6" height="6"></rect></g>
<g transform="translate(286,726) scale(3.7766666666667)"><rect width="6" height="6"></rect></g>
<g transform="translate(308,726) scale(3.7766666666667)"><rect width="6" height="6"></rect></g>
<g transform="translate(330,726) scale(3.7766666666667)"><rect width="6" height="6"></rect></g>
<g transform="translate(352,726) scale(3.7766666666667)"><rect width="6" height="6"></rect></g>
<g transform="translate(396,726) scale(3.7766666666667)"><rect width="6" height="6"></rect></g>
<g transform="translate(440,726) scale(3.7766666666667)"><rect width="6" height="6"></rect></g>
<g transform="translate(462,726) scale(3.7766666666667)"><rect width="6" height="6"></rect></g>
<g transform="translate(550,726) scale(3.7766666666667)"><rect width="6" height="6"></rect></g>
<g transform="translate(660,726) scale(3.7766666666667)"><rect width="6" height="6"></rect></g>
<g transform="translate(704,726) scale(3.7766666666667)"><rect width="6" height="6"></rect></g>
<g transform="translate(770,726) scale(3.7766666666667)"><rect width="6" height="6"></rect></g>
<g transform="translate(792,726) scale(3.7766666666667)"><rect width="6" height="6"></rect></g>
<g transform="translate(836,726) scale(3.7766666666667)"><rect width="6" height="6"></rect></g>
<g transform="translate(858,726) scale(3.7766666666667)"><rect width="6" height="6"></rect></g>
<g transform="translate(902,726) scale(3.7766666666667)"><rect width="6" height="6"></rect></g>
<g transform="translate(44,748) scale(3.7766666666667)"><rect width="6" height="6"></rect></g>
<g transform="translate(88,748) scale(3.7766666666667)"><rect width="6" height="6"></rect></g>
<g transform="translate(176,748) scale(3.7766666666667)"><rect width="6" height="6"></rect></g>
<g transform="translate(198,748) scale(3.7766666666667)"><rect width="6" height="6"></rect></g>
<g transform="translate(242,748) scale(3.7766666666667)"><rect width="6" height="6"></rect></g>
<g transform="translate(330,748) scale(3.7766666666667)"><rect width="6" height="6"></rect></g>
<g transform="translate(352,748) scale(3.7766666666667)"><rect width="6" height="6"></rect></g>
<g transform="translate(374,748) scale(3.7766666666667)"><rect width="6" height="6"></rect></g>
<g transform="translate(396,748) scale(3.7766666666667)"><rect width="6" height="6"></rect></g>
<g transform="translate(484,748) scale(3.7766666666667)"><rect width="6" height="6"></rect></g>
<g transform="translate(506,748) scale(3.7766666666667)"><rect width="6" height="6"></rect></g>
<g transform="translate(550,748) scale(3.7766666666667)"><rect width="6" height="6"></rect></g>
<g transform="translate(572,748) scale(3.7766666666667)"><rect width="6" height="6"></rect></g>
<g transform="translate(594,748) scale(3.7766666666667)"><rect width="6" height="6"></rect></g>
<g transform="translate(682,748) scale(3.7766666666667)"><rect width="6" height="6"></rect></g>
<g transform="translate(748,748) scale(3.7766666666667)"><rect width="6" height="6"></rect></g>
<g transform="translate(770,748) scale(3.7766666666667)"><rect width="6" height="6"></rect></g>
<g transform="translate(792,748) scale(3.7766666666667)"><rect width="6" height="6"></rect></g>
<g transform="translate(814,748) scale(3.7766666666667)"><rect width="6" height="6"></rect></g>
<g transform="translate(836,748) scale(3.7766666666667)"><rect width="6" height="6"></rect></g>
<g transform="translate(858,748) scale(3.7766666666667)"><rect width="6" height="6"></rect></g>
<g transform="translate(880,748) scale(3.7766666666667)"><rect width="6" height="6"></rect></g>
<g transform="translate(902,748) scale(3.7766666666667)"><rect width="6" height="6"></rect></g>
<g transform="translate(220,770) scale(3.7766666666667)"><rect width="6" height="6"></rect></g>
<g transform="translate(242,770) scale(3.7766666666667)"><rect width="6" height="6"></rect></g>
<g transform="translate(264,770) scale(3.7766666666667)"><rect width="6" height="6"></rect></g>
<g transform="translate(286,770) scale(3.7766666666667)"><rect width="6" height="6"></rect></g>
<g transform="translate(308,770) scale(3.7766666666667)"><rect width="6" height="6"></rect></g>
<g transform="translate(330,770) scale(3.7766666666667)"><rect width="6" height="6"></rect></g>
<g transform="translate(352,770) scale(3.7766666666667)"><rect width="6" height="6"></rect></g>
<g transform="translate(374,770) scale(3.7766666666667)"><rect width="6" height="6"></rect></g>
<g transform="translate(396,770) scale(3.7766666666667)"><rect width="6" height="6"></rect></g>
<g transform="translate(418,770) scale(3.7766666666667)"><rect width="6" height="6"></rect></g>
<g transform="translate(440,770) scale(3.7766666666667)"><rect width="6" height="6"></rect></g>
<g transform="translate(462,770) scale(3.7766666666667)"><rect width="6" height="6"></rect></g>
<g transform="translate(484,770) scale(3.7766666666667)"><rect width="6" height="6"></rect></g>
<g transform="translate(506,770) scale(3.7766666666667)"><rect width="6" height="6"></rect></g>
<g transform="translate(594,770) scale(3.7766666666667)"><rect width="6" height="6"></rect></g>
<g transform="translate(616,770) scale(3.7766666666667)"><rect width="6" height="6"></rect></g>
<g transform="translate(726,770) scale(3.7766666666667)"><rect width="6" height="6"></rect></g>
<g transform="translate(748,770) scale(3.7766666666667)"><rect width="6" height="6"></rect></g>
<g transform="translate(836,770) scale(3.7766666666667)"><rect width="6" height="6"></rect></g>
<g transform="translate(858,770) scale(3.7766666666667)"><rect width="6" height="6"></rect></g>
<g transform="translate(902,770) scale(3.7766666666667)"><rect width="6" height="6"></rect></g>
<g transform="translate(924,770) scale(3.7766666666667)"><rect width="6" height="6"></rect></g>
<g transform="translate(242,792) scale(3.7766666666667)"><rect width="6" height="6"></rect></g>
<g transform="translate(286,792) scale(3.7766666666667)"><rect width="6" height="6"></rect></g>
<g transform="translate(330,792) scale(3.7766666666667)"><rect width="6" height="6"></rect></g>
<g transform="translate(352,792) scale(3.7766666666667)"><rect width="6" height="6"></rect></g>
<g transform="translate(396,792) scale(3.7766666666667)"><rect width="6" height="6"></rect></g>
<g transform="translate(528,792) scale(3.7766666666667)"><rect width="6" height="6"></rect></g>
<g transform="translate(550,792) scale(3.7766666666667)"><rect width="6" height="6"></rect></g>
<g transform="translate(572,792) scale(3.7766666666667)"><rect width="6" height="6"></rect></g>
<g transform="translate(594,792) scale(3.7766666666667)"><rect width="6" height="6"></rect></g>
<g transform="translate(638,792) scale(3.7766666666667)"><rect width="6" height="6"></rect></g>
<g transform="translate(660,792) scale(3.7766666666667)"><rect width="6" height="6"></rect></g>
<g transform="translate(704,792) scale(3.7766666666667)"><rect width="6" height="6"></rect></g>
<g transform="translate(726,792) scale(3.7766666666667)"><rect width="6" height="6"></rect></g>
<g transform="translate(748,792) scale(3.7766666666667)"><rect width="6" height="6"></rect></g>
<g transform="translate(792,792) scale(3.7766666666667)"><rect width="6" height="6"></rect></g>
<g transform="translate(836,792) scale(3.7766666666667)"><rect width="6" height="6"></rect></g>
<g transform="translate(286,814) scale(3.7766666666667)"><rect width="6" height="6"></rect></g>
<g transform="translate(330,814) scale(3.7766666666667)"><rect width="6" height="6"></rect></g>
<g transform="translate(352,814) scale(3.7766666666667)"><rect width="6" height="6"></rect></g>
<g transform="translate(374,814) scale(3.7766666666667)"><rect width="6" height="6"></rect></g>
<g transform="translate(418,814) scale(3.7766666666667)"><rect width="6" height="6"></rect></g>
<g transform="translate(484,814) scale(3.7766666666667)"><rect width="6" height="6"></rect></g>
<g transform="translate(528,814) scale(3.7766666666667)"><rect width="6" height="6"></rect></g>
<g transform="translate(550,814) scale(3.7766666666667)"><rect width="6" height="6"></rect></g>
<g transform="translate(572,814) scale(3.7766666666667)"><rect width="6" height="6"></rect></g>
<g transform="translate(726,814) scale(3.7766666666667)"><rect width="6" height="6"></rect></g>
<g transform="translate(748,814) scale(3.7766666666667)"><rect width="6" height="6"></rect></g>
<g transform="translate(836,814) scale(3.7766666666667)"><rect width="6" height="6"></rect></g>
<g transform="translate(858,814) scale(3.7766666666667)"><rect width="6" height="6"></rect></g>
<g transform="translate(902,814) scale(3.7766666666667)"><rect width="6" height="6"></rect></g>
<g transform="translate(924,814) scale(3.7766666666667)"><rect width="6" height="6"></rect></g>
<g transform="translate(220,836) scale(3.7766666666667)"><rect width="6" height="6"></rect></g>
<g transform="translate(242,836) scale(3.7766666666667)"><rect width="6" height="6"></rect></g>
<g transform="translate(264,836) scale(3.7766666666667)"><rect width="6" height="6"></rect></g>
<g transform="translate(286,836) scale(3.7766666666667)"><rect width="6" height="6"></rect></g>
<g transform="translate(418,836) scale(3.7766666666667)"><rect width="6" height="6"></rect></g>
<g transform="translate(440,836) scale(3.7766666666667)"><rect width="6" height="6"></rect></g>
<g transform="translate(484,836) scale(3.7766666666667)"><rect width="6" height="6"></rect></g>
<g transform="translate(506,836) scale(3.7766666666667)"><rect width="6" height="6"></rect></g>
<g transform="translate(528,836) scale(3.7766666666667)"><rect width="6" height="6"></rect></g>
<g transform="translate(572,836) scale(3.7766666666667)"><rect width="6" height="6"></rect></g>
<g transform="translate(594,836) scale(3.7766666666667)"><rect width="6" height="6"></rect></g>
<g transform="translate(616,836) scale(3.7766666666667)"><rect width="6" height="6"></rect></g>
<g transform="translate(638,836) scale(3.7766666666667)"><rect width="6" height="6"></rect></g>
<g transform="translate(704,836) scale(3.7766666666667)"><rect width="6" height="6"></rect></g>
<g transform="translate(748,836) scale(3.7766666666667)"><rect width="6" height="6"></rect></g>
<g transform="translate(770,836) scale(3.7766666666667)"><rect width="6" height="6"></rect></g>
<g transform="translate(792,836) scale(3.7766666666667)"><rect width="6" height="6"></rect></g>
<g transform="translate(814,836) scale(3.7766666666667)"><rect width="6" height="6"></rect></g>
<g transform="translate(836,836) scale(3.7766666666667)"><rect width="6" height="6"></rect></g>
<g transform="translate(880,836) scale(3.7766666666667)"><rect width="6" height="6"></rect></g>
<g transform="translate(902,836) scale(3.7766666666667)"><rect width="6" height="6"></rect></g>
<g transform="translate(220,858) scale(3.7766666666667)"><rect width="6" height="6"></rect></g>
<g transform="translate(242,858) scale(3.7766666666667)"><rect width="6" height="6"></rect></g>
<g transform="translate(330,858) scale(3.7766666666667)"><rect width="6" height="6"></rect></g>
<g transform="translate(374,858) scale(3.7766666666667)"><rect width="6" height="6"></rect></g>
<g transform="translate(396,858) scale(3.7766666666667)"><rect width="6" height="6"></rect></g>
<g transform="translate(440,858) scale(3.7766666666667)"><rect width="6" height="6"></rect></g>
<g transform="translate(462,858) scale(3.7766666666667)"><rect width="6" height="6"></rect></g>
<g transform="translate(484,858) scale(3.7766666666667)"><rect width="6" height="6"></rect></g>
<g transform="translate(506,858) scale(3.7766666666667)"><rect width="6" height="6"></rect></g>
<g transform="translate(550,858) scale(3.7766666666667)"><rect width="6" height="6"></rect></g>
<g transform="translate(770,858) scale(3.7766666666667)"><rect width="6" height="6"></rect></g>
<g transform="translate(814,858) scale(3.7766666666667)"><rect width="6" height="6"></rect></g>
<g transform="translate(902,858) scale(3.7766666666667)"><rect width="6" height="6"></rect></g>
<g transform="translate(924,858) scale(3.7766666666667)"><rect width="6" height="6"></rect></g>
<g transform="translate(220,880) scale(3.7766666666667)"><rect width="6" height="6"></rect></g>
<g transform="translate(264,880) scale(3.7766666666667)"><rect width="6" height="6"></rect></g>
<g transform="translate(286,880) scale(3.7766666666667)"><rect width="6" height="6"></rect></g>
<g transform="translate(374,880) scale(3.7766666666667)"><rect width="6" height="6"></rect></g>
<g transform="translate(528,880) scale(3.7766666666667)"><rect width="6" height="6"></rect></g>
<g transform="translate(594,880) scale(3.7766666666667)"><rect width="6" height="6"></rect></g>
<g transform="translate(638,880) scale(3.7766666666667)"><rect width="6" height="6"></rect></g>
<g transform="translate(660,880) scale(3.7766666666667)"><rect width="6" height="6"></rect></g>
<g transform="translate(726,880) scale(3.7766666666667)"><rect width="6" height="6"></rect></g>
<g transform="translate(770,880) scale(3.7766666666667)"><rect width="6" height="6"></rect></g>
<g transform="translate(792,880) scale(3.7766666666667)"><rect width="6" height="6"></rect></g>
<g transform="translate(814,880) scale(3.7766666666667)"><rect width="6" height="6"></rect></g>
<g transform="translate(836,880) scale(3.7766666666667)"><rect width="6" height="6"></rect></g>
<g transform="translate(858,880) scale(3.7766666666667)"><rect width="6" height="6"></rect></g>
<g transform="translate(902,880) scale(3.7766666666667)"><rect width="6" height="6"></rect></g>
<g transform="translate(264,902) scale(3.7766666666667)"><rect width="6" height="6"></rect></g>
<g transform="translate(308,902) scale(3.7766666666667)"><rect width="6" height="6"></rect></g>
<g transform="translate(352,902) scale(3.7766666666667)"><rect width="6" height="6"></rect></g>
<g transform="translate(374,902) scale(3.7766666666667)"><rect width="6" height="6"></rect></g>
<g transform="translate(396,902) scale(3.7766666666667)"><rect width="6" height="6"></rect></g>
<g transform="translate(418,902) scale(3.7766666666667)"><rect width="6" height="6"></rect></g>
<g transform="translate(462,902) scale(3.7766666666667)"><rect width="6" height="6"></rect></g>
<g transform="translate(484,902) scale(3.7766666666667)"><rect width="6" height="6"></rect></g>
<g transform="translate(506,902) scale(3.7766666666667)"><rect width="6" height="6"></rect></g>
<g transform="translate(528,902) scale(3.7766666666667)"><rect width="6" height="6"></rect></g>
<g transform="translate(572,902) scale(3.7766666666667)"><rect width="6" height="6"></rect></g>
<g transform="translate(616,902) scale(3.7766666666667)"><rect width="6" height="6"></rect></g>
<g transform="translate(638,902) scale(3.7766666666667)"><rect width="6" height="6"></rect></g>
<g transform="translate(726,902) scale(3.7766666666667)"><rect width="6" height="6"></rect></g>
<g transform="translate(748,902) scale(3.7766666666667)"><rect width="6" height="6"></rect></g>
<g transform="translate(836,902) scale(3.7766666666667)"><rect width="6" height="6"></rect></g>
<g transform="translate(902,902) scale(3.7766666666667)"><rect width="6" height="6"></rect></g>
<g transform="translate(286,924) scale(3.7766666666667)"><rect width="6" height="6"></rect></g>
<g transform="translate(330,924) scale(3.7766666666667)"><rect width="6" height="6"></rect></g>
<g transform="translate(440,924) scale(3.7766666666667)"><rect width="6" height="6"></rect></g>
<g transform="translate(462,924) scale(3.7766666666667)"><rect width="6" height="6"></rect></g>
<g transform="translate(572,924) scale(3.7766666666667)"><rect width="6" height="6"></rect></g>
<g transform="translate(594,924) scale(3.7766666666667)"><rect width="6" height="6"></rect></g>
<g transform="translate(682,924) scale(3.7766666666667)"><rect width="6" height="6"></rect></g>
<g transform="translate(704,924) scale(3.7766666666667)"><rect width="6" height="6"></rect></g>
<g transform="translate(726,924) scale(3.7766666666667)"><rect width="6" height="6"></rect></g>
<g transform="translate(814,924) scale(3.7766666666667)"><rect width="6" height="6"></rect></g>
<g transform="translate(836,924) scale(3.7766666666667)"><rect width="6" height="6"></rect></g>
<g transform="translate(858,924) scale(3.7766666666667)"><rect width="6" height="6"></rect></g>
</g><g><g transform="translate(44,44)" fill="#000000"><g transform="scale(11)"><path d="M0,0v14h14V0H0z M12,12H2V2h10V12z"></path></g></g>
<g transform="translate(792,44)" fill="#000000"><g transform="scale(11)"><path d="M0,0v14h14V0H0z M12,12H2V2h10V12z"></path></g></g>
<g transform="translate(44,792)" fill="#000000"><g transform="scale(11)"><path d="M0,0v14h14V0H0z M12,12H2V2h10V12z"></path></g></g>
<g transform="translate(88,88)" fill="#000000"><g transform="scale(11)"><rect width="6" height="6"></rect></g></g>
<g transform="translate(836,88)" fill="#000000"><g transform="scale(11)"><rect width="6" height="6"></rect></g></g>
<g transform="translate(88,836)" fill="#000000"><g transform="scale(11)"><rect width="6" height="6"></rect></g></g></g>
</svg>